<?xml version="1.0" encoding="UTF-8" standalone="no"?>
<svg width="400" height="400" viewBox="0 0 400 400" xmlns="http://www.w3.org/2000/svg">

    <!-- Temporary White Background -->
    <rect width="400" height="400" fill="white" />

    <!-- Basketball Shadow -->
    <circle cx="200" cy="200" r="180" fill="rgba(0, 0, 0, 0.3)" />

    <!-- Basketball Circle -->
    <circle cx="200" cy="200" r="180" stroke="#000" stroke-width="15" fill="#F57C00" />

    <!-- Slice 1 -->
    <path d="M200 200 L200 20 A180 180 0 0 1 380 200 Z" fill="#17408B" />
    <!-- Slice 2 -->
    <path d="M200 200 L380 200 A180 180 0 0 1 200 380 Z" fill="#F4EBD0" />
    <!-- Slice 3 -->
    <path d="M200 200 L200 380 A180 180 0 0 1 20 200 Z" fill="#C9082A" />
    <!-- Slice 4 -->
    <path d="M200 200 L20 200 A180 180 0 0 1 200 20 Z" fill="#FF9800" />
    
    <!-- Curvy Basketball Lines -->
    <path d="M85 60 Q175 200 85 340" stroke="#000" stroke-width="10" fill="none" />
    <path d="M320 60 Q200 200 320 340" stroke="#000" stroke-width="10" fill="none" />

     <!-- Straight Basketball Lines -->
    <path d="M20 200 Q200 200 380 200" stroke="#000" stroke-width="10" fill="none" />
    <path d="M200 20 Q200 200 200 380" stroke="#000" stroke-width="10" fill="none" />

    <!-- White Lines -->
    <path d="M200 197 390 197" stroke="#FFFFFF" stroke-width="10" fill="none" />
    <path d="M203 10 203 202" stroke="#FFFFFF" stroke-width="10" fill="none" />
    <path d="M204 196 380 20" stroke="#FFFFFF" stroke-width="10" fill="none" stroke-linecap="round"/>
    
    <!-- Inner Border Lines -->
    <path d="M207 15 206 185" stroke="#000" stroke-width="5" fill="none" stroke-linecap="round"/>
    <path d="M206 185 324 65" stroke="#000" stroke-width="5" fill="none" stroke-linecap="round" />
    <path d="M215 194 333 80" stroke="#000" stroke-width="5" fill="none" stroke-linecap="round" />
    <path d="M215 194 385 194" stroke="#000" stroke-width="5" fill="none" stroke-linecap="round"/>

</svg>
